<svg width="504" height="345" viewBox="0 0 504 345" fill="none" xmlns="http://www.w3.org/2000/svg">
<rect x="2.37695" y="4.00305" width="501.433" height="338" transform="rotate(0.306794 2.37695 4.00305)" fill="#292929"/>
<rect x="2" width="502" height="16" fill="#E7E7E7"/>
<circle cx="491" cy="8" r="4" fill="#AB3535"/>
<ellipse cx="480.5" cy="8" rx="3.5" ry="4" fill="#D28A35"/>
<ellipse cx="470.5" cy="8" rx="3.5" ry="4" fill="#2CA938"/>
<rect x="2" y="16" width="502" height="23" fill="#3A3A3A"/>
<rect x="164" y="21" width="166" height="13" fill="#252525"/>
<rect width="20" height="13" transform="matrix(-1 0 0 1 350 21)" fill="#595959"/>
<rect x="13.033" y="25" width="7.35531" height="1" fill="white"/>
<rect x="13.033" y="27" width="7.35531" height="1" fill="white"/>
<rect x="13.033" y="29" width="7.35531" height="1" fill="white"/>
<rect x="29" y="25" width="8" height="5" rx="1" fill="#C23C3C"/>
<path d="M34 27.5L31.75 28.799L31.75 26.201L34 27.5Z" fill="white"/>
<path d="M40.548 27.834L41.412 25.8H42.006L40.836 28.44V30H40.26V28.44L39.09 25.8H39.684L40.548 27.834ZM42.1563 28.41C42.1563 28.134 42.1923 27.892 42.2643 27.684C42.3403 27.472 42.4423 27.296 42.5703 27.156C42.6983 27.012 42.8503 26.906 43.0263 26.838C43.2063 26.766 43.3983 26.73 43.6023 26.73C43.8063 26.73 43.9963 26.766 44.1723 26.838C44.3523 26.906 44.5063 27.012 44.6343 27.156C44.7663 27.296 44.8683 27.472 44.9403 27.684C45.0163 27.892 45.0543 28.134 45.0543 28.41C45.0543 28.686 45.0163 28.93 44.9403 29.142C44.8683 29.35 44.7663 29.526 44.6343 29.67C44.5063 29.81 44.3523 29.916 44.1723 29.988C43.9963 30.056 43.8063 30.09 43.6023 30.09C43.3983 30.09 43.2063 30.056 43.0263 29.988C42.8503 29.916 42.6983 29.81 42.5703 29.67C42.4423 29.526 42.3403 29.35 42.2643 29.142C42.1923 28.93 42.1563 28.686 42.1563 28.41ZM42.7563 28.41C42.7563 28.822 42.8343 29.128 42.9903 29.328C43.1503 29.524 43.3543 29.622 43.6023 29.622C43.8543 29.622 44.0583 29.524 44.2143 29.328C44.3743 29.128 44.4543 28.822 44.4543 28.41C44.4543 27.998 44.3743 27.694 44.2143 27.498C44.0583 27.298 43.8543 27.198 43.6023 27.198C43.3543 27.198 43.1503 27.298 42.9903 27.498C42.8343 27.694 42.7563 27.998 42.7563 28.41ZM48.5406 29.49C48.5406 29.554 48.5546 29.598 48.5826 29.622C48.6146 29.642 48.6526 29.652 48.6966 29.652C48.7286 29.652 48.7626 29.648 48.7986 29.64C48.8346 29.628 48.8686 29.614 48.9006 29.598L48.9966 29.97C48.9326 30.002 48.8626 30.03 48.7866 30.054C48.7106 30.078 48.6266 30.09 48.5346 30.09C48.3946 30.09 48.2766 30.058 48.1806 29.994C48.0846 29.93 48.0246 29.81 48.0006 29.634C47.8766 29.754 47.7246 29.86 47.5446 29.952C47.3686 30.044 47.1606 30.09 46.9206 30.09C46.6046 30.09 46.3746 29.996 46.2306 29.808C46.0866 29.616 46.0146 29.338 46.0146 28.974V26.82H46.5906V28.98C46.5906 29.196 46.6286 29.358 46.7046 29.466C46.7806 29.57 46.9086 29.622 47.0886 29.622C47.2646 29.622 47.4246 29.59 47.5686 29.526C47.7126 29.462 47.8446 29.376 47.9646 29.268V26.82H48.5406V29.49ZM49.5077 26.82H49.9637V26.16L50.4197 26.04H50.5397V26.82H51.3797V27.24H50.5397V29.316C50.5397 29.508 50.6337 29.604 50.8217 29.604C50.9457 29.604 51.0997 29.548 51.2837 29.436L51.4397 29.796C51.3197 29.888 51.1837 29.96 51.0317 30.012C50.8837 30.064 50.7437 30.09 50.6117 30.09C50.3997 30.09 50.2377 30.02 50.1257 29.88C50.0177 29.736 49.9637 29.528 49.9637 29.256V27.24H49.5077V26.82ZM54.6285 29.49C54.6285 29.554 54.6425 29.598 54.6705 29.622C54.7025 29.642 54.7405 29.652 54.7845 29.652C54.8165 29.652 54.8505 29.648 54.8865 29.64C54.9225 29.628 54.9565 29.614 54.9885 29.598L55.0845 29.97C55.0205 30.002 54.9505 30.03 54.8745 30.054C54.7985 30.078 54.7145 30.09 54.6225 30.09C54.4825 30.09 54.3645 30.058 54.2685 29.994C54.1725 29.93 54.1125 29.81 54.0885 29.634C53.9645 29.754 53.8125 29.86 53.6325 29.952C53.4565 30.044 53.2485 30.09 53.0085 30.09C52.6925 30.09 52.4625 29.996 52.3185 29.808C52.1745 29.616 52.1025 29.338 52.1025 28.974V26.82H52.6785V28.98C52.6785 29.196 52.7165 29.358 52.7925 29.466C52.8685 29.57 52.9965 29.622 53.1765 29.622C53.3525 29.622 53.5125 29.59 53.6565 29.526C53.8005 29.462 53.9325 29.376 54.0525 29.268V26.82H54.6285V29.49ZM57.3776 26.73C57.5616 26.73 57.7276 26.766 57.8756 26.838C58.0276 26.906 58.1556 27.012 58.2596 27.156C58.3676 27.296 58.4496 27.472 58.5056 27.684C58.5656 27.892 58.5956 28.134 58.5956 28.41C58.5956 28.686 58.5596 28.93 58.4876 29.142C58.4156 29.35 58.3176 29.526 58.1936 29.67C58.0696 29.81 57.9236 29.916 57.7556 29.988C57.5876 30.056 57.4076 30.09 57.2156 30.09C57.0316 30.09 56.8616 30.056 56.7056 29.988C56.5496 29.92 56.4116 29.834 56.2916 29.73L56.1416 30H55.8656V25.5H56.4416V27.132C56.5536 27.024 56.6856 26.93 56.8376 26.85C56.9936 26.77 57.1736 26.73 57.3776 26.73ZM57.2516 27.198C57.0916 27.198 56.9436 27.23 56.8076 27.294C56.6756 27.358 56.5536 27.444 56.4416 27.552V29.37C56.5336 29.442 56.6436 29.502 56.7716 29.55C56.8996 29.598 57.0396 29.622 57.1916 29.622C57.4276 29.622 57.6196 29.524 57.7676 29.328C57.9196 29.128 57.9956 28.822 57.9956 28.41C57.9956 27.998 57.9256 27.694 57.7856 27.498C57.6496 27.298 57.4716 27.198 57.2516 27.198ZM60.9236 29.622C61.1276 29.622 61.3036 29.584 61.4516 29.508C61.6036 29.428 61.7256 29.344 61.8176 29.256L62.0756 29.568C61.9516 29.708 61.7896 29.83 61.5896 29.934C61.3896 30.038 61.1616 30.09 60.9056 30.09C60.6936 30.09 60.4976 30.056 60.3176 29.988C60.1376 29.916 59.9816 29.81 59.8496 29.67C59.7216 29.526 59.6196 29.35 59.5436 29.142C59.4716 28.93 59.4356 28.686 59.4356 28.41C59.4356 28.134 59.4716 27.892 59.5436 27.684C59.6156 27.472 59.7156 27.296 59.8436 27.156C59.9716 27.012 60.1216 26.906 60.2936 26.838C60.4696 26.766 60.6596 26.73 60.8636 26.73C61.0516 26.73 61.2236 26.76 61.3796 26.82C61.5396 26.876 61.6756 26.964 61.7876 27.084C61.8996 27.204 61.9856 27.354 62.0456 27.534C62.1096 27.71 62.1416 27.918 62.1416 28.158V28.578H60.0416C60.0656 28.934 60.1576 29.198 60.3176 29.37C60.4816 29.538 60.6836 29.622 60.9236 29.622ZM60.8696 27.198C60.6536 27.198 60.4696 27.278 60.3176 27.438C60.1696 27.594 60.0796 27.834 60.0476 28.158H61.5716C61.5716 27.85 61.5096 27.614 61.3856 27.45C61.2656 27.282 61.0936 27.198 60.8696 27.198Z" fill="white"/>
<rect x="27.8073" y="61.9766" width="336" height="187" transform="rotate(0.306794 27.8073 61.9766)" fill="#0E0E0E"/>
<rect x="33.854" y="240.011" width="323" height="1" transform="rotate(0.306794 33.854 240.011)" fill="#747070"/>
<rect x="33.854" y="240.011" width="250" height="1" transform="rotate(0.306794 33.854 240.011)" fill="#C72B2B"/>
<rect x="371" y="63" width="66" height="42" fill="#797777"/>
<rect x="371" y="113" width="66" height="42" fill="#797777"/>
<rect x="371" y="163" width="66" height="42" fill="#797777"/>
<rect x="371.225" y="213" width="66" height="42" transform="rotate(0.306794 371.225 213)" fill="#797777"/>
<rect x="371.225" y="263" width="66" height="42" transform="rotate(0.306794 371.225 263)" fill="#797777"/>
<rect x="371.225" y="313" width="66" height="30.4989" transform="rotate(0.306794 371.225 313)" fill="#797777"/>
</svg>
