<svg width="504" height="345" fill="none" xmlns="http://www.w3.org/2000/svg"><path fill="#292929" d="m2.377 4.003 501.426 2.685-1.81 337.995L.567 341.998z"/><path fill="#E7E7E7" d="M2 0h502v16H2z"/><circle cx="491" cy="8" r="4" fill="#AB3535"/><ellipse cx="480.5" cy="8" rx="3.5" ry="4" fill="#D28A35"/><ellipse cx="470.5" cy="8" rx="3.5" ry="4" fill="#2CA938"/><path fill="#3A3A3A" d="M2 16h502v23H2z"/><path fill="#252525" d="M164 21h166v13H164z"/><path fill="#595959" d="M350 21h-20v13h20z"/><path fill="#fff" d="M13.033 25h7.355v1h-7.355zM13.033 27h7.355v1h-7.355zM13.033 29h7.355v1h-7.355z"/><rect x="29" y="25" width="8" height="5" rx="1" fill="#C23C3C"/><path d="m34 27.5-2.25 1.299v-2.598L34 27.5zM40.548 27.834l.864-2.034h.594l-1.17 2.64V30h-.576v-1.56l-1.17-2.64h.594l.864 2.034zm1.608.576c0-.276.036-.518.108-.726.076-.212.178-.388.306-.528.128-.144.28-.25.456-.318.18-.072.372-.108.576-.108.204 0 .394.036.57.108.18.068.334.174.462.318.132.14.234.316.306.528.076.208.114.45.114.726 0 .276-.038.52-.114.732a1.492 1.492 0 0 1-.306.528c-.128.14-.282.246-.462.318a1.568 1.568 0 0 1-.57.102c-.204 0-.396-.034-.576-.102a1.253 1.253 0 0 1-.456-.318 1.623 1.623 0 0 1-.306-.528 2.274 2.274 0 0 1-.108-.732zm.6 0c0 .412.078.718.234.918.16.196.364.294.612.294a.745.745 0 0 0 .612-.294c.16-.2.24-.506.24-.918 0-.412-.08-.716-.24-.912a.74.74 0 0 0-.612-.3.75.75 0 0 0-.612.3c-.156.196-.234.5-.234.912zm5.785 1.08c0 .064.014.108.042.132.032.02.07.03.114.03a.471.471 0 0 0 .102-.012.778.778 0 0 0 .102-.042l.096.372c-.064.032-.134.06-.21.084a.834.834 0 0 1-.252.036.624.624 0 0 1-.354-.096c-.096-.064-.156-.184-.18-.36a1.88 1.88 0 0 1-.456.318 1.33 1.33 0 0 1-.624.138c-.316 0-.546-.094-.69-.282-.144-.192-.216-.47-.216-.834V26.82h.576v2.16c0 .216.038.378.114.486.076.104.204.156.384.156.176 0 .336-.032.48-.096a1.5 1.5 0 0 0 .396-.258V26.82h.576v2.67zm.967-2.67h.456v-.66l.456-.12h.12v.78h.84v.42h-.84v2.076c0 .192.094.288.282.288.124 0 .278-.056.462-.168l.156.36a1.42 1.42 0 0 1-.408.216 1.268 1.268 0 0 1-.42.078c-.212 0-.374-.07-.486-.21-.108-.144-.162-.352-.162-.624V27.24h-.456v-.42zm5.12 2.67c0 .064.014.108.042.132.032.02.07.03.114.03a.471.471 0 0 0 .102-.012.778.778 0 0 0 .102-.042l.096.372c-.064.032-.134.06-.21.084a.834.834 0 0 1-.252.036.624.624 0 0 1-.353-.096c-.096-.064-.157-.184-.18-.36a1.88 1.88 0 0 1-.456.318 1.33 1.33 0 0 1-.625.138c-.316 0-.546-.094-.69-.282-.143-.192-.215-.47-.215-.834V26.82h.575v2.16c0 .216.039.378.114.486.076.104.204.156.384.156.176 0 .337-.032.48-.096a1.5 1.5 0 0 0 .397-.258V26.82h.576v2.67zm2.75-2.76c.184 0 .35.036.498.108.152.068.28.174.384.318.108.14.19.316.246.528.06.208.09.45.09.726 0 .276-.036.52-.108.732-.072.208-.17.384-.294.528-.124.14-.27.246-.438.318a1.425 1.425 0 0 1-.54.102c-.184 0-.354-.034-.51-.102a1.608 1.608 0 0 1-.414-.258l-.15.27h-.276v-4.5h.576v1.632a1.72 1.72 0 0 1 .396-.282c.156-.08.336-.12.54-.12zm-.126.468c-.16 0-.308.032-.444.096-.132.064-.254.15-.366.258v1.818a1.235 1.235 0 0 0 .75.252.69.69 0 0 0 .576-.294c.152-.2.228-.506.228-.918 0-.412-.07-.716-.21-.912-.136-.2-.314-.3-.534-.3zm3.672 2.424c.204 0 .38-.038.528-.114.152-.08.274-.164.366-.252l.258.312c-.124.14-.286.262-.486.366a1.46 1.46 0 0 1-.684.156 1.65 1.65 0 0 1-.588-.102 1.298 1.298 0 0 1-.468-.318 1.623 1.623 0 0 1-.306-.528 2.274 2.274 0 0 1-.108-.732c0-.276.036-.518.108-.726.072-.212.172-.388.3-.528.128-.144.278-.25.45-.318a1.49 1.49 0 0 1 .57-.108c.188 0 .36.03.516.09.16.056.296.144.408.264.112.12.198.27.258.45.064.176.096.384.096.624v.42h-2.1c.024.356.116.62.276.792a.814.814 0 0 0 .606.252zm-.054-2.424c-.216 0-.4.08-.552.24-.148.156-.238.396-.27.72h1.524c0-.308-.062-.544-.186-.708a.596.596 0 0 0-.516-.252z" fill="#fff"/><path fill="#0E0E0E" d="m27.807 61.977 335.995 1.8-1.001 186.996-335.995-1.799z"/><path fill="#747070" d="m33.854 240.011 322.995 1.73-.005 1-322.995-1.73z"/><path fill="#C72B2B" d="m33.854 240.011 249.996 1.339-.005 1L33.85 241.01z"/><path fill="#797777" d="M371 63h66v42h-66zM371 113h66v42h-66zM371 163h66v42h-66zM371.225 213l66 .353-.226 42-65.999-.354zM371.225 263l66 .353-.226 42-65.999-.354zM371.225 313l66 .353-.164 30.499-66-.353z"/></svg>