<svg height="638pt" viewBox="-121 -20 638 638.667" width="638pt" xmlns="http://www.w3.org/2000/svg"><path d="M262.094 365.188a9.99 9.99 0 0 1-9.992 9.992c-5.52 0-9.989-4.473-9.989-9.993 0-5.515 4.469-9.992 9.989-9.992 5.52 0 9.992 4.477 9.992 9.993zm0 0"/><path d="M387.637 148.727a8.717 8.717 0 0 0-5.957-4.434 8.55 8.55 0 0 0-1.946-.176H131.762c-4.824 0-8.742 3.914-8.742 8.742v102.203c0 4.825 3.918 8.743 8.742 8.743 4.828 0 8.742-3.918 8.742-8.743v-93.46h179.742l-124.195 37.183a8.74 8.74 0 0 0-6.235 8.375v382.848a8.742 8.742 0 0 0 11.25 8.375l181.372-54.305a8.747 8.747 0 0 0 6.242-8.379V153.06a8.696 8.696 0 0 0-.094-1.457 8.745 8.745 0 0 0-.95-2.875zM252.102 392.668c-15.176 0-27.477-12.305-27.477-27.48s12.3-27.477 27.477-27.477c15.175 0 27.48 12.3 27.48 27.476-.02 15.168-12.309 27.461-27.48 27.481zm0 0"/><path d="M140.504 526.957v-89.473a8.74 8.74 0 0 0-8.742-8.742 8.742 8.742 0 0 0-8.742 8.742V535.7c0 4.832 3.918 8.746 8.742 8.746h58.054v-17.488zM262.094 117.406c32.422 0 58.703-26.285 58.703-58.703C320.797 26.281 294.516 0 262.094 0s-58.7 26.281-58.7 58.703a58.358 58.358 0 0 0 17.094 41.602 58.407 58.407 0 0 0 41.606 17.101zM245.28 40.68c2.606-4.063 8.012-5.25 12.078-2.645l13.903 8.91a8.736 8.736 0 0 1 4.027 7.364V82a8.743 8.743 0 0 1-8.746 8.742c-4.824 0-8.742-3.914-8.742-8.742V59.09l-9.875-6.336c-4.063-2.606-5.25-8.008-2.645-12.074zM23.41 352.7h140.031a8.742 8.742 0 1 0 0-17.484H23.411l36.3-36.302c3.414-3.414 3.414-8.953 0-12.363a8.742 8.742 0 0 0-12.363 0l-51.23 51.222c-3.415 3.41-3.415 8.95 0 12.364l51.222 51.222a8.744 8.744 0 0 0 12.37 0 8.742 8.742 0 0 0 0-12.363zm0 0"/></svg>