<svg width="102" height="34" fill="none" xmlns="http://www.w3.org/2000/svg"><path d="M24 17.808C24 23.488 19.472 28 14 28S4 23.488 4 17.808C4 11.904 8.743 7 14 7s10 4.904 10 10.808z" fill="#1BAA65" stroke="#202323" stroke-width="8"/><path d="M41.728 26.168c-1.968 0-3.584-.464-4.848-1.392-1.264-.944-1.944-2.288-2.04-4.032h5.016c.048.592.224 1.024.528 1.296.304.272.696.408 1.176.408.432 0 .784-.104 1.056-.312.288-.224.432-.528.432-.912 0-.496-.232-.88-.696-1.152-.464-.272-1.216-.576-2.256-.912-1.104-.368-2-.72-2.688-1.056-.672-.352-1.264-.856-1.776-1.512-.496-.672-.744-1.544-.744-2.616 0-1.088.272-2.016.816-2.784.544-.784 1.296-1.376 2.256-1.776.96-.4 2.048-.6 3.264-.6 1.968 0 3.536.464 4.704 1.392 1.184.912 1.816 2.2 1.896 3.864h-5.112c-.016-.512-.176-.896-.48-1.152-.288-.256-.664-.384-1.128-.384-.352 0-.64.104-.864.312-.224.208-.336.504-.336.888 0 .32.12.6.36.84.256.224.568.424.936.6.368.16.912.368 1.632.624 1.072.368 1.952.736 2.64 1.104a5.093 5.093 0 0 1 1.8 1.512c.512.64.768 1.456.768 2.448 0 1.008-.256 1.912-.768 2.712-.496.8-1.224 1.432-2.184 1.896-.944.464-2.064.696-3.36.696zm22.995-13.632-8.544 19.872h-5.112l3.216-6.984-5.52-12.888h5.232l2.832 7.632 2.736-7.632h5.16zm10.038-.12c1.552 0 2.784.52 3.696 1.56.912 1.024 1.368 2.416 1.368 4.176V26h-4.704v-7.224c0-.768-.2-1.368-.6-1.8-.4-.448-.936-.672-1.608-.672-.704 0-1.256.224-1.656.672-.4.432-.6 1.032-.6 1.8V26h-4.704V12.536h4.704v1.92a4.54 4.54 0 0 1 1.68-1.464c.704-.384 1.512-.576 2.424-.576zm6.877 6.84c0-1.392.288-2.608.864-3.648a5.975 5.975 0 0 1 2.4-2.4c1.04-.56 2.224-.84 3.552-.84 1.713 0 3.153.472 4.32 1.416 1.168.928 1.92 2.232 2.257 3.912h-4.993c-.287-.88-.847-1.32-1.68-1.32-.592 0-1.064.248-1.416.744-.335.48-.503 1.192-.503 2.136 0 .944.168 1.664.504 2.16.352.496.823.744 1.416.744.848 0 1.407-.44 1.68-1.32h4.992c-.337 1.664-1.089 2.968-2.257 3.912-1.168.944-2.608 1.416-4.32 1.416-1.328 0-2.511-.28-3.551-.84a5.975 5.975 0 0 1-2.4-2.4c-.576-1.04-.865-2.264-.865-3.672z" fill="#1BAA65"/></svg>