<svg width="100" height="100" fill="none" xmlns="http://www.w3.org/2000/svg"><rect width="100" height="100" rx="8" fill="#47BD5A"/><path d="M46.253 18.02c1.296-3.466 6.198-3.466 7.494 0l5.694 15.23a4 4 0 0 0 3.572 2.594l16.244.71c3.696.162 5.211 4.824 2.316 7.127L68.848 53.803a4 4 0 0 0-1.364 4.2l4.345 15.667c.988 3.566-2.977 6.447-6.063 4.405L52.208 69.1a4 4 0 0 0-4.416 0l-13.558 8.974c-3.086 2.042-7.051-.84-6.063-4.405l4.345-15.668a4 4 0 0 0-1.364-4.199L18.427 43.681c-2.895-2.303-1.38-6.965 2.316-7.127l16.244-.71a4 4 0 0 0 3.572-2.595l5.694-15.23z" fill="#fff"/></svg>