<svg xmlns="http://www.w3.org/2000/svg" width="548.169" height="548.169" style="enable-background:new 0 0 548.169 548.169" xml:space="preserve" fill="#fff"><path d="M109.634 164.452c20.179 0 37.402-7.135 51.674-21.411 14.277-14.275 21.416-31.503 21.416-51.678 0-20.173-7.139-37.401-21.416-51.678-14.272-14.275-31.496-21.414-51.674-21.414-20.177 0-37.401 7.139-51.676 21.414-14.274 14.277-21.413 31.501-21.413 51.678 0 20.179 7.139 37.403 21.413 51.678 14.275 14.272 31.499 21.411 51.676 21.411zm86.935 114.067c21.413 21.406 47.248 32.114 77.516 32.114 30.269 0 56.103-10.708 77.515-32.114 21.409-21.42 32.117-47.258 32.117-77.52 0-30.264-10.708-56.101-32.117-77.515-21.412-21.414-47.246-32.121-77.515-32.121-30.268 0-56.105 10.709-77.516 32.121-21.411 21.411-32.12 47.248-32.12 77.515s10.709 56.103 32.12 77.52zm241.974-114.067c20.17 0 37.397-7.135 51.671-21.411 14.274-14.275 21.409-31.503 21.409-51.678 0-20.173-7.135-37.401-21.409-51.678-14.273-14.275-31.501-21.414-51.671-21.414-20.184 0-37.407 7.139-51.682 21.414-14.271 14.277-21.409 31.501-21.409 51.678 0 20.179 7.139 37.403 21.409 51.678 14.275 14.272 31.498 21.411 51.682 21.411zm74.22.004c-1.136 0-5.276 1.999-12.415 5.996-7.132 3.999-16.416 8.044-27.833 12.137-11.416 4.089-22.747 6.136-33.972 6.136-12.758 0-25.406-2.187-37.973-6.567.945 7.039 1.424 13.322 1.424 18.842 0 26.457-7.71 50.819-23.134 73.089 30.841.955 56.056 13.134 75.668 36.552h38.256c15.605 0 28.739-3.863 39.396-11.57 10.657-7.703 15.989-18.986 15.989-33.83.003-67.194-11.793-100.789-35.406-100.785z"/><path d="M470.096 395.284c-1.999-11.136-4.524-21.464-7.57-30.978-3.046-9.521-7.139-18.794-12.271-27.836-5.141-9.034-11.044-16.748-17.706-23.127-6.667-6.379-14.805-11.464-24.414-15.276-9.609-3.806-20.225-5.708-31.833-5.708-1.906 0-5.996 2.047-12.278 6.14a3489 3489 0 0 0-20.841 13.702c-7.615 5.037-17.789 9.609-30.55 13.702-12.762 4.093-25.608 6.14-38.544 6.14-12.941 0-25.791-2.047-38.544-6.14-12.756-4.093-22.936-8.665-30.55-13.702a3554.86 3554.86 0 0 0-20.841-13.702c-6.283-4.093-10.373-6.14-12.279-6.14-11.609 0-22.22 1.902-31.833 5.708-9.613 3.812-17.749 8.897-24.41 15.276-6.667 6.372-12.562 14.093-17.705 23.127-5.137 9.042-9.229 18.315-12.275 27.836-3.045 9.514-5.564 19.842-7.566 30.978-2 11.136-3.331 21.505-3.997 31.121a427.043 427.043 0 0 0-.999 29.554c0 22.836 6.945 40.874 20.839 54.098 13.899 13.223 32.363 19.842 55.389 19.842h249.535c23.028 0 41.49-6.619 55.392-19.842 13.894-13.224 20.841-31.262 20.841-54.098 0-10.088-.335-19.938-.992-29.554-.676-9.616-2.007-19.986-3.998-31.121zM169.303 274.088c-15.418-22.27-23.125-46.632-23.122-73.089 0-5.52.477-11.799 1.427-18.842-12.564 4.377-25.221 6.567-37.974 6.567-11.23 0-22.552-2.046-33.974-6.136-11.417-4.093-20.699-8.138-27.834-12.137-7.138-3.997-11.281-5.996-12.422-5.996C11.801 164.456 0 198.051 0 265.24c0 14.844 5.33 26.127 15.987 33.83 10.66 7.707 23.794 11.563 39.397 11.563h38.26c19.607-23.411 44.823-35.591 75.659-36.545z"/></svg>